# xmcd CD database file
#
# Track frame offsets:
#	150
#	21965
#	37788
#	64897
#	103343
#	131942
#	158020
#	183930
#	209630
#	239837
#	266494
#	297934
#	333007
#
# Disc length: 4745 seconds
#
# Revision: 1
# Processed by: cddbd v1.5.2PL0 Copyright (c) Steve Scherf et al.
# Submitted via: CDex 1.50
#
DISCID=c412870d
DTITLE=Elizabeth Peters - 19 - Tod auf dem Tempelberg CD02
DYEAR=2010
DGENRE=Hörbuch
TTITLE0=Tod auf dem Tempelberg - 14v79
TTITLE1=Tod auf dem Tempelberg - 15v79
TTITLE2=Tod auf dem Tempelberg - 16v79
TTITLE3=Tod auf dem Tempelberg - 17v79
TTITLE4=Tod auf dem Tempelberg - 18v79
TTITLE5=Tod auf dem Tempelberg - 19v79
TTITLE6=Tod auf dem Tempelberg - 20v79
TTITLE7=Tod auf dem Tempelberg - 21v79
TTITLE8=Tod auf dem Tempelberg - 22v79
TTITLE9=Tod auf dem Tempelberg - 23v79
TTITLE10=Tod auf dem Tempelberg - 24v79
TTITLE11=Tod auf dem Tempelberg - 25v79
TTITLE12=Tod auf dem Tempelberg - 26v79
EXTD=YEAR: 2010
EXTT0=
EXTT1=
EXTT2=
EXTT3=
EXTT4=
EXTT5=
EXTT6=
EXTT7=
EXTT8=
EXTT9=
EXTT10=
EXTT11=
EXTT12=
PLAYORDER=
